<?xml version="1.0" encoding="UTF-8" standalone="no"?><!DOCTYPE svg PUBLIC "-//W3C//DTD SVG 1.1//EN" "http://www.w3.org/Graphics/SVG/1.1/DTD/svg11.dtd"><svg width="100%" height="100%" viewBox="0 0 6667 3750" version="1.1" xmlns="http://www.w3.org/2000/svg" xmlns:xlink="http://www.w3.org/1999/xlink" xml:space="preserve" xmlns:serif="http://www.serif.com/" style="fill-rule:evenodd;clip-rule:evenodd;"><rect x="0" y="0" width="6666.667" height="3750" style="fill:#f8f9fa;"/><text x="2691.667px" y="208.333px" style="font-family:'HiraginoSans-W7', 'Hiragino Sans', sans-serif;font-weight:700;font-size:116.667px;fill:#1a1a1a;">リサーチフレームワーク</text><path d="M1541.667,541.667l0,2750c0,22.996 -18.67,41.667 -41.667,41.667l-1250,0c-22.996,0 -41.667,-18.67 -41.667,-41.667l0,-2750c0,-22.996 18.67,-41.667 41.667,-41.667l1250,0c22.996,0 41.667,18.67 41.667,41.667Z" style="fill:#e3f2fd;stroke:#1976d2;stroke-width:12.5px;"/><text x="691.667px" y="666.667px" style="font-family:'HiraginoSans-W7', 'Hiragino Sans', sans-serif;font-weight:700;font-size:91.667px;fill:#0d47a1;">独立変数</text><text x="666.667px" y="791.667px" style="font-family:'HiraginoSans-W7', 'Hiragino Sans', sans-serif;font-weight:700;font-size:83.333px;fill:#1565c0;">市場成熟度</text><path d="M1458.333,950l0,391.667c0,18.397 -14.936,33.333 -33.333,33.333l-1100,0c-18.397,0 -33.333,-14.936 -33.333,-33.333l0,-391.667c0,-18.397 14.936,-33.333 33.333,-33.333l1100,0c18.397,0 33.333,14.936 33.333,33.333Z" style="fill:#bbdefb;stroke:#1976d2;stroke-width:8.33px;"/><g transform="matrix(4.166667,0,0,4.166667,875,1062.5)"><text x="-77.005px" y="0px" style="font-family:'HiraginoSans-W7', 'Hiragino Sans', sans-serif;font-weight:700;font-size:18px;fill:#0d47a1;">第</text><text x="-59.005px" y="0px" style="font-family:'Helvetica-Bold', 'Helvetica';font-weight:700;font-size:18px;fill:#0d47a1;">1</text><text x="-48.995px" y="0px" style="font-family:'HiraginoSans-W7', 'Hiragino Sans', sans-serif;font-weight:700;font-size:18px;fill:#0d47a1;">層：超成熟市場</text></g><text x="718.75px" y="1166.667px" style="font-family:'HiraginoSans-W4', 'Hiragino Sans', sans-serif;font-size:62.5px;fill:#424242;">中国・韓国</text><g transform="matrix(4.166667,0,0,4.166667,875,1270.833333)"><text x="-75.848px" y="0px" style="font-family:'Helvetica';font-size:13px;fill:#616161;">E-commerce</text><text x="-2.171px" y="0px" style="font-family:'HiraginoSans-W4', 'Hiragino Sans', sans-serif;font-size:13px;fill:#616161;">浸透率</text><text x="36.829px" y="0px" style="font-family:'Helvetica';font-size:13px;fill:#616161;">80%</text><text x="62.848px" y="0px" style="font-family:'HiraginoSans-W4', 'Hiragino Sans', sans-serif;font-size:13px;fill:#616161;">超</text></g><path d="M1458.333,1470.833l0,391.667c0,18.397 -14.936,33.333 -33.333,33.333l-1100,0c-18.397,0 -33.333,-14.936 -33.333,-33.333l0,-391.667c0,-18.397 14.936,-33.333 33.333,-33.333l1100,0c18.397,0 33.333,14.936 33.333,33.333Z" style="fill:#90caf9;stroke:#1976d2;stroke-width:8.33px;"/><g transform="matrix(4.166667,0,0,4.166667,875,1583.333333)"><text x="-68.005px" y="0px" style="font-family:'HiraginoSans-W7', 'Hiragino Sans', sans-serif;font-weight:700;font-size:18px;fill:#0d47a1;">第</text><text x="-50.005px" y="0px" style="font-family:'Helvetica-Bold', 'Helvetica';font-weight:700;font-size:18px;fill:#0d47a1;">2</text><text x="-39.995px" y="0px" style="font-family:'HiraginoSans-W7', 'Hiragino Sans', sans-serif;font-weight:700;font-size:18px;fill:#0d47a1;">層：成熟市場</text></g><text x="812.5px" y="1687.5px" style="font-family:'HiraginoSans-W4', 'Hiragino Sans', sans-serif;font-size:62.5px;fill:#424242;">日本</text><text x="550px" y="1791.667px" style="font-family:'HiraginoSans-W4', 'Hiragino Sans', sans-serif;font-size:54.167px;fill:#616161;">安定成長・サービス多様化</text><path d="M1458.333,1991.667l0,391.667c0,18.397 -14.936,33.333 -33.333,33.333l-1100,0c-18.397,0 -33.333,-14.936 -33.333,-33.333l0,-391.667c0,-18.397 14.936,-33.333 33.333,-33.333l1100,0c18.397,0 33.333,14.936 33.333,33.333Z" style="fill:#64b5f6;stroke:#1976d2;stroke-width:8.33px;"/><g transform="matrix(4.166667,0,0,4.166667,875,2104.166667)"><text x="-77.005px" y="0px" style="font-family:'HiraginoSans-W7', 'Hiragino Sans', sans-serif;font-weight:700;font-size:18px;fill:#0d47a1;">第</text><text x="-59.005px" y="0px" style="font-family:'Helvetica-Bold', 'Helvetica';font-weight:700;font-size:18px;fill:#0d47a1;">3</text><text x="-48.995px" y="0px" style="font-family:'HiraginoSans-W7', 'Hiragino Sans', sans-serif;font-weight:700;font-size:18px;fill:#0d47a1;">層：急成長市場</text></g><text x="781.25px" y="2208.333px" style="font-family:'HiraginoSans-W4', 'Hiragino Sans', sans-serif;font-size:62.5px;fill:#424242;">インド</text><g transform="matrix(4.166667,0,0,4.166667,875,2312.5)"><text x="-48.404px" y="0px" style="font-family:'HiraginoSans-W4', 'Hiragino Sans', sans-serif;font-size:13px;fill:#616161;">年成長率</text><text x="3.596px" y="0px" style="font-family:'Helvetica';font-size:13px;fill:#616161;">20-25%</text></g><path d="M1458.333,2512.5l0,391.667c0,18.397 -14.936,33.333 -33.333,33.333l-1100,0c-18.397,0 -33.333,-14.936 -33.333,-33.333l0,-391.667c0,-18.397 14.936,-33.333 33.333,-33.333l1100,0c18.397,0 33.333,14.936 33.333,33.333Z" style="fill:#42a5f5;stroke:#1976d2;stroke-width:8.33px;"/><g transform="matrix(4.166667,0,0,4.166667,875,2625)"><text x="-68.005px" y="0px" style="font-family:'HiraginoSans-W7', 'Hiragino Sans', sans-serif;font-weight:700;font-size:18px;fill:#0d47a1;">第</text><text x="-50.005px" y="0px" style="font-family:'Helvetica-Bold', 'Helvetica';font-weight:700;font-size:18px;fill:#0d47a1;">4</text><text x="-39.995px" y="0px" style="font-family:'HiraginoSans-W7', 'Hiragino Sans', sans-serif;font-weight:700;font-size:18px;fill:#0d47a1;">層：新興市場</text></g><text x="718.75px" y="2729.167px" style="font-family:'HiraginoSans-W4', 'Hiragino Sans', sans-serif;font-size:62.5px;fill:#424242;">東南アジア</text><text x="604.167px" y="2833.333px" style="font-family:'HiraginoSans-W4', 'Hiragino Sans', sans-serif;font-size:54.167px;fill:#616161;">多様性・初期発展段階</text><path d="M1541.667,1916.667l291.667,0" style="fill:none;fill-rule:nonzero;stroke:#424242;stroke-width:16.67px;"/><path d="M3833.333,541.667l0,2750c0,22.996 -18.67,41.667 -41.667,41.667l-1916.667,0c-22.996,0 -41.667,-18.67 -41.667,-41.667l0,-2750c0,-22.996 18.67,-41.667 41.667,-41.667l1916.667,0c22.996,0 41.667,18.67 41.667,41.667Z" style="fill:#fff3e0;stroke:#f57c00;stroke-width:12.5px;"/><text x="2650px" y="666.667px" style="font-family:'HiraginoSans-W7', 'Hiragino Sans', sans-serif;font-weight:700;font-size:91.667px;fill:#e65100;">媒介変数</text><text x="2583.333px" y="791.667px" style="font-family:'HiraginoSans-W7', 'Hiragino Sans', sans-serif;font-weight:700;font-size:83.333px;fill:#ef6c00;">戦略パターン</text><path d="M3750,950l0,558.333c0,18.397 -14.936,33.333 -33.333,33.333l-1766.667,0c-18.397,0 -33.333,-14.936 -33.333,-33.333l0,-558.333c0,-18.397 14.936,-33.333 33.333,-33.333l1766.667,0c18.397,0 33.333,14.936 33.333,33.333Z" style="fill:#ffe0b2;stroke:#f57c00;stroke-width:8.33px;"/><g transform="matrix(4.166667,0,0,4.166667,2833.333333,1062.5)"><text x="-147.006px" y="0px" style="font-family:'Helvetica-Bold', 'Helvetica';font-weight:700;font-size:18px;fill:#e65100;">SRQ1:</text><text x="-86.994px" y="0px" style="font-family:'HiraginoSans-W7', 'Hiragino Sans', sans-serif;font-weight:700;font-size:18px;fill:#e65100;">プラットフォーム企業の戦略</text></g><g transform="matrix(4.166667,0,0,4.166667,2833.333333,1187.5)"><text x="-109.396px" y="0px" style="font-family:'Helvetica';font-size:14px;fill:#424242;">•</text><text x="-100.604px" y="0px" style="font-family:'HiraginoSans-W4', 'Hiragino Sans', sans-serif;font-size:14px;fill:#424242;">垂直統合度（物流・決済・技術）</text></g><g transform="matrix(4.166667,0,0,4.166667,2833.333333,1291.666667)"><text x="-122.24px" y="0px" style="font-family:'Helvetica';font-size:14px;fill:#424242;">•</text><text x="-113.449px" y="0px" style="font-family:'HiraginoSans-W4', 'Hiragino Sans', sans-serif;font-size:14px;fill:#424242;">エコシステム開放度（</text><text x="26.551px" y="0px" style="font-family:'Helvetica';font-size:14px;fill:#424242;">3P</text><text x="43.675px" y="0px" style="font-family:'HiraginoSans-W4', 'Hiragino Sans', sans-serif;font-size:14px;fill:#424242;">比率・</text><text x="85.675px" y="0px" style="font-family:'Helvetica';font-size:14px;fill:#424242;">API</text><text x="108.24px" y="0px" style="font-family:'HiraginoSans-W4', 'Hiragino Sans', sans-serif;font-size:14px;fill:#424242;">）</text></g><g transform="matrix(4.166667,0,0,4.166667,2833.333333,1395.833333)"><text x="-133.899px" y="0px" style="font-family:'Helvetica';font-size:14px;fill:#424242;">•</text><text x="-125.108px" y="0px" style="font-family:'HiraginoSans-W4', 'Hiragino Sans', sans-serif;font-size:14px;fill:#424242;">収益モデル（手数料・</text><text x="14.892px" y="0px" style="font-family:'Helvetica';font-size:14px;fill:#424242;">1P</text><text x="32.016px" y="0px" style="font-family:'HiraginoSans-W4', 'Hiragino Sans', sans-serif;font-size:14px;fill:#424242;">・広告・</text><text x="88.016px" y="0px" style="font-family:'Helvetica';font-size:14px;fill:#424242;">RMN</text><text x="119.899px" y="0px" style="font-family:'HiraginoSans-W4', 'Hiragino Sans', sans-serif;font-size:14px;fill:#424242;">）</text></g><path d="M3750,1637.5l0,558.333c0,18.397 -14.936,33.333 -33.333,33.333l-1766.667,0c-18.397,0 -33.333,-14.936 -33.333,-33.333l0,-558.333c0,-18.397 14.936,-33.333 33.333,-33.333l1766.667,0c18.397,0 33.333,14.936 33.333,33.333Z" style="fill:#ffcc80;stroke:#f57c00;stroke-width:8.33px;"/><g transform="matrix(4.166667,0,0,4.166667,2833.333333,1750)"><text x="-129.01px" y="0px" style="font-family:'Helvetica-Bold', 'Helvetica';font-weight:700;font-size:18px;fill:#e65100;">SRQ2: D2C</text><text x="-32.99px" y="0px" style="font-family:'HiraginoSans-W7', 'Hiragino Sans', sans-serif;font-weight:700;font-size:18px;fill:#e65100;">ブランドの成長軌道</text></g><g transform="matrix(4.166667,0,0,4.166667,2833.333333,1875)"><text x="-113.285px" y="0px" style="font-family:'Helvetica';font-size:14px;fill:#424242;">•</text><text x="-104.494px" y="0px" style="font-family:'HiraginoSans-W4', 'Hiragino Sans', sans-serif;font-size:14px;fill:#424242;">成長速度</text><text x="-44.604px" y="0px" style="font-family:'Helvetica';font-size:14px;fill:#424242;">vs</text><text x="-26.715px" y="0px" style="font-family:'HiraginoSans-W4', 'Hiragino Sans', sans-serif;font-size:14px;fill:#424242;">収益性のトレードオフ</text></g><g transform="matrix(4.166667,0,0,4.166667,2833.333333,1979.166667)"><text x="-151.396px" y="0px" style="font-family:'Helvetica';font-size:14px;fill:#424242;">•</text><text x="-142.604px" y="0px" style="font-family:'HiraginoSans-W4', 'Hiragino Sans', sans-serif;font-size:14px;fill:#424242;">プラットフォーム依存度（独立・依存・混合）</text></g><g transform="matrix(4.166667,0,0,4.166667,2833.333333,2083.333333)"><text x="-137.396px" y="0px" style="font-family:'Helvetica';font-size:14px;fill:#424242;">•</text><text x="-128.604px" y="0px" style="font-family:'HiraginoSans-W4', 'Hiragino Sans', sans-serif;font-size:14px;fill:#424242;">市場浸透戦略（広告・インフルエンサー）</text></g><path d="M3750,2325l0,558.333c0,18.397 -14.936,33.333 -33.333,33.333l-1766.667,0c-18.397,0 -33.333,-14.936 -33.333,-33.333l0,-558.333c0,-18.397 14.936,-33.333 33.333,-33.333l1766.667,0c18.397,0 33.333,14.936 33.333,33.333Z" style="fill:#ffb74d;stroke:#f57c00;stroke-width:8.33px;"/><g transform="matrix(4.166667,0,0,4.166667,2833.333333,2437.5)"><text x="-120.006px" y="0px" style="font-family:'Helvetica-Bold', 'Helvetica';font-weight:700;font-size:18px;fill:#e65100;">SRQ3:</text><text x="-59.994px" y="0px" style="font-family:'HiraginoSans-W7', 'Hiragino Sans', sans-serif;font-weight:700;font-size:18px;fill:#e65100;">理論的説明メカニズム</text></g><g transform="matrix(4.166667,0,0,4.166667,2833.333333,2562.5)"><text x="-116.396px" y="0px" style="font-family:'Helvetica';font-size:14px;fill:#424242;">•</text><text x="-107.604px" y="0px" style="font-family:'HiraginoSans-W4', 'Hiragino Sans', sans-serif;font-size:14px;fill:#424242;">制度的距離理論（規制・文化差異）</text></g><g transform="matrix(4.166667,0,0,4.166667,2833.333333,2666.666667)"><text x="-123.396px" y="0px" style="font-family:'Helvetica';font-size:14px;fill:#424242;">•</text><text x="-114.604px" y="0px" style="font-family:'HiraginoSans-W4', 'Hiragino Sans', sans-serif;font-size:14px;fill:#424242;">動的能力理論（環境適応メカニズム）</text></g><g transform="matrix(4.166667,0,0,4.166667,2833.333333,2770.833333)"><text x="-116.396px" y="0px" style="font-family:'Helvetica';font-size:14px;fill:#424242;">•</text><text x="-107.604px" y="0px" style="font-family:'HiraginoSans-W4', 'Hiragino Sans', sans-serif;font-size:14px;fill:#424242;">組織的相補性理論（資源統合効果）</text></g><path d="M3833.333,1916.667l291.667,0" style="fill:none;fill-rule:nonzero;stroke:#424242;stroke-width:16.67px;"/><path d="M5625,541.667l0,2750c0,22.996 -18.67,41.667 -41.667,41.667l-1416.667,0c-22.996,0 -41.667,-18.67 -41.667,-41.667l0,-2750c0,-22.996 18.67,-41.667 41.667,-41.667l1416.667,0c22.996,0 41.667,18.67 41.667,41.667Z" style="fill:#e8f5e9;stroke:#388e3c;stroke-width:12.5px;"/><text x="4691.667px" y="666.667px" style="font-family:'HiraginoSans-W7', 'Hiragino Sans', sans-serif;font-weight:700;font-size:91.667px;fill:#1b5e20;">従属変数</text><text x="4583.333px" y="791.667px" style="font-family:'HiraginoSans-W7', 'Hiragino Sans', sans-serif;font-weight:700;font-size:83.333px;fill:#2e7d32;">パフォーマンス</text><path d="M5541.667,950l0,391.667c0,18.397 -14.936,33.333 -33.333,33.333l-1266.667,0c-18.397,0 -33.333,-14.936 -33.333,-33.333l0,-391.667c0,-18.397 14.936,-33.333 33.333,-33.333l1266.667,0c18.397,0 33.333,14.936 33.333,33.333Z" style="fill:#c8e6c9;stroke:#388e3c;stroke-width:8.33px;"/><text x="4556.25px" y="1062.5px" style="font-family:'HiraginoSans-W7', 'Hiragino Sans', sans-serif;font-weight:700;font-size:70.833px;fill:#1b5e20;">財務パフォーマンス</text><text x="4729.167px" y="1166.667px" style="font-family:'HiraginoSans-W4', 'Hiragino Sans', sans-serif;font-size:58.333px;fill:#424242;">収益成長率</text><g transform="matrix(4.166667,0,0,4.166667,4875,1270.833333)"><text x="-57.169px" y="0px" style="font-family:'HiraginoSans-W4', 'Hiragino Sans', sans-serif;font-size:14px;fill:#424242;">営業利益率・</text><text x="26.831px" y="0px" style="font-family:'Helvetica';font-size:14px;fill:#424242;">ROE</text></g><path d="M5541.667,1470.833l0,391.667c0,18.397 -14.936,33.333 -33.333,33.333l-1266.667,0c-18.397,0 -33.333,-14.936 -33.333,-33.333l0,-391.667c0,-18.397 14.936,-33.333 33.333,-33.333l1266.667,0c18.397,0 33.333,14.936 33.333,33.333Z" style="fill:#a5d6a7;stroke:#388e3c;stroke-width:8.33px;"/><text x="4556.25px" y="1583.333px" style="font-family:'HiraginoSans-W7', 'Hiragino Sans', sans-serif;font-weight:700;font-size:70.833px;fill:#1b5e20;">市場パフォーマンス</text><text x="4729.167px" y="1687.5px" style="font-family:'HiraginoSans-W4', 'Hiragino Sans', sans-serif;font-size:58.333px;fill:#424242;">市場シェア</text><text x="4641.667px" y="1791.667px" style="font-family:'HiraginoSans-W4', 'Hiragino Sans', sans-serif;font-size:58.333px;fill:#424242;">顧客獲得・維持率</text><path d="M5541.667,1991.667l0,391.667c0,18.397 -14.936,33.333 -33.333,33.333l-1266.667,0c-18.397,0 -33.333,-14.936 -33.333,-33.333l0,-391.667c0,-18.397 14.936,-33.333 33.333,-33.333l1266.667,0c18.397,0 33.333,14.936 33.333,33.333Z" style="fill:#81c784;stroke:#388e3c;stroke-width:8.33px;"/><text x="4520.833px" y="2104.167px" style="font-family:'HiraginoSans-W7', 'Hiragino Sans', sans-serif;font-weight:700;font-size:70.833px;fill:#1b5e20;">戦略的パフォーマンス</text><text x="4641.667px" y="2208.333px" style="font-family:'HiraginoSans-W4', 'Hiragino Sans', sans-serif;font-size:58.333px;fill:#424242;">競争優位の持続性</text><text x="4700px" y="2312.5px" style="font-family:'HiraginoSans-W4', 'Hiragino Sans', sans-serif;font-size:58.333px;fill:#424242;">市場適応能力</text><path d="M5541.667,2512.5l0,391.667c0,18.397 -14.936,33.333 -33.333,33.333l-1266.667,0c-18.397,0 -33.333,-14.936 -33.333,-33.333l0,-391.667c0,-18.397 14.936,-33.333 33.333,-33.333l1266.667,0c18.397,0 33.333,14.936 33.333,33.333Z" style="fill:#66bb6a;stroke:#388e3c;stroke-width:8.33px;"/><text x="4627.083px" y="2625px" style="font-family:'HiraginoSans-W7', 'Hiragino Sans', sans-serif;font-weight:700;font-size:70.833px;fill:#1b5e20;">長期的価値創造</text><text x="4700px" y="2729.167px" style="font-family:'HiraginoSans-W4', 'Hiragino Sans', sans-serif;font-size:58.333px;fill:#424242;">企業時価総額</text><text x="4641.667px" y="2833.333px" style="font-family:'HiraginoSans-W4', 'Hiragino Sans', sans-serif;font-size:58.333px;fill:#424242;">株主価値・将来性</text><path d="M6583.333,1208.333l0,1333.333c0,22.996 -18.67,41.667 -41.667,41.667l-791.667,0c-22.996,0 -41.667,-18.67 -41.667,-41.667l0,-1333.333c0,-22.996 18.67,-41.667 41.667,-41.667l791.667,0c22.996,0 41.667,18.67 41.667,41.667Z" style="fill:#f3e5f5;stroke:#7b1fa2;stroke-width:12.5px;"/><g transform="matrix(4.166667,0,0,4.166667,6145.833333,1312.5)"><text x="-35px" y="0px" style="font-family:'HiraginoSans-W7', 'Hiragino Sans', sans-serif;font-weight:700;font-size:20px;fill:#4a148c;">統合</text><text x="5px" y="0px" style="font-family:'Helvetica-Bold', 'Helvetica';font-weight:700;font-size:20px;fill:#4a148c;">RQ</text></g><path d="M5791.667,1375l708.333,0" style="fill:none;fill-rule:nonzero;stroke:#7b1fa2;stroke-width:4.17px;"/><text x="5983.333px" y="1500px" style="font-family:'HiraginoSans-W4', 'Hiragino Sans', sans-serif;font-size:54.167px;fill:#424242;">市場成熟度の</text><text x="6037.5px" y="1604.167px" style="font-family:'HiraginoSans-W4', 'Hiragino Sans', sans-serif;font-size:54.167px;fill:#424242;">差異は、</text><text x="5929.167px" y="1708.333px" style="font-family:'HiraginoSans-W4', 'Hiragino Sans', sans-serif;font-size:54.167px;fill:#424242;">プラットフォーム</text><text x="5956.25px" y="1812.5px" style="font-family:'HiraginoSans-W4', 'Hiragino Sans', sans-serif;font-size:54.167px;fill:#424242;">企業の事業戦略</text><text x="6010.417px" y="1916.667px" style="font-family:'HiraginoSans-W4', 'Hiragino Sans', sans-serif;font-size:54.167px;fill:#424242;">パターンと</text><g transform="matrix(4.166667,0,0,4.166667,6145.833333,2020.833333)"><text x="-45.503px" y="0px" style="font-family:'Helvetica';font-size:13px;fill:#424242;">D2C</text><text x="-19.497px" y="0px" style="font-family:'HiraginoSans-W4', 'Hiragino Sans', sans-serif;font-size:13px;fill:#424242;">ブランドの</text></g><text x="6010.417px" y="2125px" style="font-family:'HiraginoSans-W4', 'Hiragino Sans', sans-serif;font-size:54.167px;fill:#424242;">成長軌道に</text><text x="6010.417px" y="2229.167px" style="font-family:'HiraginoSans-W4', 'Hiragino Sans', sans-serif;font-size:54.167px;fill:#424242;">どのような</text><text x="5983.333px" y="2333.333px" style="font-family:'HiraginoSans-W4', 'Hiragino Sans', sans-serif;font-size:54.167px;fill:#424242;">構造的差異を</text><text x="5983.333px" y="2437.5px" style="font-family:'HiraginoSans-W4', 'Hiragino Sans', sans-serif;font-size:54.167px;fill:#424242;">もたらすのか</text><text x="1933.333px" y="3541.667px" style="font-family:'HiraginoSans-W4', 'Hiragino Sans', sans-serif;font-size:50px;fill:#757575;">注：矢印は因果関係の方向性を示す。市場成熟度が戦略パターンに影響し、戦略パターンがパフォーマンスに影響する構造。</text></svg>